REM MD5 36b9ea21ec2fb16579852fc00e68d04b
FILE "Championship Manager Quiz (Europe).bin" BINARY
  TRACK 01 MODE2/2352
    INDEX 01 00:00:00
  TRACK 02 AUDIO
    INDEX 00 01:00:58
    INDEX 01 01:02:58
  TRACK 03 AUDIO
    INDEX 00 03:06:39
    INDEX 01 03:08:39
  TRACK 04 AUDIO
    INDEX 00 04:42:27
    INDEX 01 04:44:27
REM LEADOUT 08:44:27
